<svg width="1715" height="325" viewBox="0 0 1715 325" fill="none" xmlns="http://www.w3.org/2000/svg">
<rect width="1715" height="325" fill="#F5F5F5"/>
<g clip-path="url(#clip0_0_1)">
<rect width="1715" height="325" fill="white"/>
<path d="M63.3 167.95C55.1 167.95 47.85 166.25 41.55 162.85C35.35 159.45 30.45 154.9 26.85 149.2C23.35 143.4 21.6 137.05 21.6 130.15C21.6 125.05 22.45 119.95 24.15 114.85C25.85 109.65 28.15 104.65 31.05 99.85C33.95 95.05 37.2 90.75 40.8 86.95C40.4 86.05 40.1 85.15 39.9 84.25C39.7 83.25 39.6 82.3 39.6 81.4V80.8C39.6 80 39.7 79.3 39.9 78.7C40.2 78 40.85 77.65 41.85 77.65C42.65 77.65 43.3 77.85 43.8 78.25C44.4 78.65 44.7 79.2 44.7 79.9C44.7 80.5 44.65 81.1 44.55 81.7C44.55 82.2 44.55 82.75 44.55 83.35C52.35 75.85 61.5 69.6 72 64.6C82.6 59.5 93.65 56.15 105.15 54.55C106.65 54.35 108.15 54.2 109.65 54.1C111.15 54 112.65 53.95 114.15 53.95C118.15 53.95 122.15 54.5 126.15 55.6C130.25 56.7 133.65 58.45 136.35 60.85C139.15 63.25 140.55 66.5 140.55 70.6C140.55 72.9 140.05 75.15 139.05 77.35C138.05 79.55 136.75 81.55 135.15 83.35C131.15 88.05 126.05 91.8 119.85 94.6C113.65 97.4 107 99.4 99.9 100.6C92.9 101.7 86.2 102.25 79.8 102.25C75.9 102.25 71.65 101.85 67.05 101.05C62.55 100.15 58.2 98.85 54 97.15C49.9 95.35 46.5 93.15 43.8 90.55C39 96.15 34.95 102.3 31.65 109C28.35 115.7 26.7 122.6 26.7 129.7C26.7 135.9 28.25 141.55 31.35 146.65C34.45 151.75 38.75 155.75 44.25 158.65C49.85 161.65 56.3 163.15 63.6 163.15C69.1 163.15 74.85 162.1 80.85 160C86.85 158 93 154.3 99.3 148.9C105.7 143.5 112.1 135.9 118.5 126.1C118.8 125.6 119.35 125.25 120.15 125.05C121.75 125.05 122.55 125.75 122.55 127.15C122.55 127.55 122.4 128 122.1 128.5C118 135.8 113.05 142.45 107.25 148.45C101.55 154.35 95 159.05 87.6 162.55C80.3 166.15 72.2 167.95 63.3 167.95ZM79.8 97.9C85.5 97.9 91.55 97.45 97.95 96.55C104.35 95.55 110.45 93.9 116.25 91.6C122.05 89.3 126.8 86.15 130.5 82.15C131.9 80.55 133.05 78.8 133.95 76.9C134.95 75 135.45 73.05 135.45 71.05C135.45 67.75 134.35 65.2 132.15 63.4C129.95 61.5 127.25 60.15 124.05 59.35C120.85 58.55 117.65 58.15 114.45 58.15C113.15 58.15 111.8 58.2 110.4 58.3C109 58.4 107.6 58.55 106.2 58.75C95 60.35 84.15 63.75 73.65 68.95C63.15 74.05 54.2 80.3 46.8 87.7C48.8 90.1 51.75 92.05 55.65 93.55C59.65 95.05 63.85 96.15 68.25 96.85C72.65 97.55 76.5 97.9 79.8 97.9ZM120.959 154.6C117.659 154.6 115.359 153.75 114.059 152.05C112.859 150.25 112.259 148.1 112.259 145.6C112.259 143.2 112.659 140.7 113.459 138.1C114.259 135.5 115.109 133.1 116.009 130.9C117.009 128.6 117.809 126.9 118.409 125.8C120.209 122.7 122.209 119.7 124.409 116.8C126.709 113.9 129.159 111.35 131.759 109.15C134.359 106.85 137.009 105.1 139.709 103.9C142.509 102.6 145.309 101.95 148.109 101.95C152.909 101.95 156.309 103.25 158.309 105.85C160.309 108.35 161.309 111.05 161.309 113.95C161.309 114.95 161.159 116 160.859 117.1C160.459 118.6 159.959 119.9 159.359 121C158.859 122.1 158.209 122.65 157.409 122.65C156.709 122.65 156.059 122.3 155.459 121.6C154.859 120.9 154.659 120.2 154.859 119.5C155.059 118.8 155.309 118.1 155.609 117.4C156.009 116.7 156.259 116 156.359 115.3C156.459 114.8 156.509 114.35 156.509 113.95C156.609 113.55 156.659 113.15 156.659 112.75C156.659 110.05 155.759 108.2 153.959 107.2C152.259 106.1 150.409 105.55 148.409 105.55C146.109 105.55 143.709 106.2 141.209 107.5C138.809 108.8 136.709 110.3 134.909 112C132.709 114.2 130.509 116.75 128.309 119.65C126.109 122.55 124.209 125.5 122.609 128.5C122.409 129 121.859 130.2 120.959 132.1C120.159 134 119.359 136.15 118.559 138.55C117.859 140.85 117.509 143 117.509 145C117.509 146.4 117.809 147.6 118.409 148.6C119.109 149.6 120.259 150.1 121.859 150.1C123.559 150.1 125.509 149.3 127.709 147.7C130.009 146.1 132.309 144.15 134.609 141.85C137.009 139.45 139.159 137.15 141.059 134.95C142.959 132.75 144.359 131.05 145.259 129.85C145.859 129.05 146.409 128.2 146.909 127.3C147.509 126.3 148.109 125.4 148.709 124.6C149.009 124.2 149.609 124 150.509 124C151.309 124 152.109 124.25 152.909 124.75C153.809 125.15 154.159 125.75 153.959 126.55C153.559 127.25 152.809 128.8 151.709 131.2C150.709 133.5 149.759 136.05 148.859 138.85C147.959 141.55 147.509 143.95 147.509 146.05C147.509 148.65 148.309 150.15 149.909 150.55C151.009 150.75 152.159 150.35 153.359 149.35C154.659 148.35 155.809 147.2 156.809 145.9C157.909 144.6 158.709 143.65 159.209 143.05C161.309 140.25 163.259 137.4 165.059 134.5C166.959 131.5 168.859 128.7 170.759 126.1C171.359 125.3 172.059 124.9 172.859 124.9C174.259 124.9 174.959 125.65 174.959 127.15C174.959 127.65 174.309 128.95 173.009 131.05C171.709 133.05 170.109 135.35 168.209 137.95C166.409 140.55 164.709 142.9 163.109 145C161.509 147.1 159.709 149.15 157.709 151.15C155.709 153.15 153.159 154.15 150.059 154.15C147.159 154.15 145.159 153.5 144.059 152.2C143.059 150.9 142.559 149.45 142.559 147.85C142.559 146.45 142.709 145 143.009 143.5C143.309 141.9 143.609 140.55 143.909 139.45L143.309 139C142.409 140.1 141.059 141.5 139.259 143.2C137.459 144.9 135.459 146.65 133.259 148.45C131.059 150.15 128.859 151.6 126.659 152.8C124.559 154 122.659 154.6 120.959 154.6ZM187.654 156.1C185.754 156.1 184.104 155.5 182.704 154.3C181.404 153.1 180.754 151.2 180.754 148.6C180.754 146.5 181.154 144.35 181.954 142.15C182.754 139.85 183.504 138.05 184.204 136.75C185.804 133.55 187.504 130.6 189.304 127.9C191.104 125.1 192.454 123.1 193.354 121.9C191.554 122 189.404 121.55 186.904 120.55C184.504 119.55 182.804 118.25 181.804 116.65C180.504 118.55 178.654 121.65 176.254 125.95C173.854 130.15 170.804 134.6 167.104 139.3C166.504 140.1 165.804 140.5 165.004 140.5C163.504 140.5 162.754 139.85 162.754 138.55C162.754 138.05 162.904 137.6 163.204 137.2C164.704 135.1 166.554 132.4 168.754 129.1C171.054 125.7 173.254 122.2 175.354 118.6C177.554 114.9 179.304 111.6 180.604 108.7C181.004 107.8 181.404 106.85 181.804 105.85C182.304 104.85 182.754 103.9 183.154 103C183.554 102.3 184.104 101.7 184.804 101.2C185.504 100.6 186.304 100.3 187.204 100.3C188.004 100.3 188.804 100.65 189.604 101.35C190.404 101.95 190.804 102.65 190.804 103.45C190.804 104.35 190.454 105.5 189.754 106.9C189.154 108.2 188.504 109.55 187.804 110.95C187.104 112.35 186.754 113.6 186.754 114.7C186.754 115.6 187.504 116.2 189.004 116.5C190.504 116.8 191.604 116.95 192.304 116.95C195.004 116.95 197.254 116.4 199.054 115.3C200.854 114.2 202.104 113.65 202.804 113.65C203.404 113.65 203.904 113.9 204.304 114.4C204.804 114.8 205.054 115.25 205.054 115.75C205.054 116.45 204.754 117.05 204.154 117.55C202.754 118.85 201.104 120.7 199.204 123.1C197.304 125.5 195.404 128.1 193.504 130.9C191.604 133.7 189.954 136.45 188.554 139.15C188.154 140.15 187.554 141.55 186.754 143.35C186.054 145.15 185.704 146.85 185.704 148.45C185.704 151.15 186.654 152.5 188.554 152.5C189.354 152.5 190.254 152.2 191.254 151.6C192.354 151 193.404 150.3 194.404 149.5C196.804 147.3 198.904 145.15 200.704 143.05C202.604 140.85 204.504 138.4 206.404 135.7C208.304 133 210.504 129.75 213.004 125.95C213.404 125.25 214.104 124.9 215.104 124.9C216.404 124.9 217.054 125.5 217.054 126.7C217.054 127.3 216.754 128.15 216.154 129.25C214.754 131.75 212.904 134.5 210.604 137.5C208.404 140.5 206.104 143.35 203.704 146.05C201.404 148.65 199.354 150.65 197.554 152.05C194.354 154.75 191.054 156.1 187.654 156.1ZM221.591 154.15C217.591 154.15 214.841 152.95 213.341 150.55C211.841 148.15 211.091 145.25 211.091 141.85C211.091 138.05 211.691 133.7 212.891 128.8C214.191 123.9 215.841 118.8 217.841 113.5C219.941 108.2 222.291 103 224.891 97.9C227.491 92.8 230.141 88.15 232.841 83.95C235.541 79.75 238.091 76.3 240.491 73.6C242.591 71.3 244.591 69.55 246.491 68.35C248.491 67.05 250.591 66 252.791 65.2C254.291 64.6 255.791 64.3 257.291 64.3C259.291 64.3 260.991 64.8 262.391 65.8C263.891 66.8 264.641 68.45 264.641 70.75C264.641 72.95 263.841 75.5 262.241 78.4C260.641 81.2 258.641 84.05 256.241 86.95C253.841 89.85 251.391 92.55 248.891 95.05C246.391 97.55 244.191 99.6 242.291 101.2C238.091 104.7 234.041 108 230.141 111.1C226.241 114.1 222.991 117.15 220.391 120.25C218.991 124.15 217.891 127.95 217.091 131.65C216.291 135.25 215.891 138.5 215.891 141.4C215.891 144 216.341 146.15 217.241 147.85C218.241 149.55 219.941 150.4 222.341 150.4C224.741 150.4 227.041 149.65 229.241 148.15C231.441 146.55 233.541 144.55 235.541 142.15C237.641 139.75 239.541 137.35 241.241 134.95C242.441 133.25 243.591 131.6 244.691 130C245.891 128.3 246.841 126.95 247.541 125.95C247.941 125.25 248.591 124.9 249.491 124.9C250.591 124.9 251.141 125.45 251.141 126.55C251.141 127.25 250.841 128.15 250.241 129.25C249.041 131.25 247.491 133.65 245.591 136.45C243.691 139.25 241.541 142 239.141 144.7C236.741 147.4 234.041 149.65 231.041 151.45C228.141 153.25 224.991 154.15 221.591 154.15ZM244.091 76.6C241.891 79 239.541 82.1 237.041 85.9C234.641 89.7 232.241 93.9 229.841 98.5C227.441 103.1 225.241 107.75 223.241 112.45C226.441 109.55 229.341 107.1 231.941 105.1C234.541 103 237.141 100.8 239.741 98.5C242.041 96.5 244.491 94.05 247.091 91.15C249.791 88.15 252.291 85.05 254.591 81.85C256.891 78.65 258.491 75.7 259.391 73C259.691 71.9 259.841 71.05 259.841 70.45C259.841 68.85 259.041 68.05 257.441 68.05C257.041 68.05 256.591 68.1 256.091 68.2C255.691 68.3 255.241 68.45 254.741 68.65C252.941 69.35 251.141 70.35 249.341 71.65C247.641 72.95 245.891 74.6 244.091 76.6ZM255.272 157.45C252.572 157.45 250.422 156.75 248.822 155.35C247.222 153.95 246.022 152.25 245.222 150.25C244.522 148.15 244.172 146.2 244.172 144.4C244.172 142 244.622 139.35 245.522 136.45C246.422 133.45 247.222 131.4 247.922 130.3C247.922 130 247.872 129.7 247.772 129.4C247.772 129 247.772 128.65 247.772 128.35C247.772 125.65 248.172 122.85 248.972 119.95C249.872 116.55 251.472 113.45 253.772 110.65C256.072 107.75 258.922 105.4 262.322 103.6C265.822 101.8 269.622 100.9 273.722 100.9C278.522 100.9 282.222 102.2 284.822 104.8C287.422 107.3 288.722 110.6 288.722 114.7C288.722 120.4 287.672 125.3 285.572 129.4C283.572 133.5 281.422 137.45 279.122 141.25C278.722 142.05 278.372 142.7 278.072 143.2C277.772 143.7 278.072 143.95 278.972 143.95C281.872 143.95 284.722 142.75 287.522 140.35C290.322 137.95 293.872 133.4 298.172 126.7C298.472 126.2 298.772 125.8 299.072 125.5C299.372 125.2 299.822 125.05 300.422 125.05H300.722C301.822 125.05 302.472 125.7 302.672 127C302.672 127.3 302.572 127.65 302.372 128.05C299.872 132.45 297.322 136.25 294.722 139.45C292.222 142.65 289.222 145.1 285.722 146.8C282.222 148.4 277.822 149.25 272.522 149.35C270.422 151.35 267.822 153.2 264.722 154.9C261.722 156.6 258.572 157.45 255.272 157.45ZM269.672 143.65H271.172C273.272 141.15 275.272 138.3 277.172 135.1C279.172 131.9 280.772 128.6 281.972 125.2C283.172 121.7 283.772 118.4 283.772 115.3C283.772 112.4 283.022 109.95 281.522 107.95C280.022 105.85 277.422 104.8 273.722 104.8C271.222 104.8 268.772 105.35 266.372 106.45C264.072 107.45 262.072 108.7 260.372 110.2L260.822 110.8C261.022 110.7 261.322 110.65 261.722 110.65C262.322 110.65 262.872 110.9 263.372 111.4C263.872 111.8 264.122 112.25 264.122 112.75C264.122 113.05 264.072 113.3 263.972 113.5C263.872 113.7 263.722 113.9 263.522 114.1C261.822 116.6 260.172 118.95 258.572 121.15C256.972 123.35 255.472 125.85 254.072 128.65C253.772 129.35 253.422 130.05 253.022 130.75C253.822 134.45 255.672 137.55 258.572 140.05C261.572 142.45 265.272 143.65 269.672 143.65ZM256.172 153.25C258.172 153.25 260.172 152.65 262.172 151.45C264.172 150.15 265.872 148.95 267.272 147.85C259.672 147.05 254.072 143.7 250.472 137.8C250.372 138.5 250.172 139.55 249.872 140.95C249.572 142.35 249.422 143.75 249.422 145.15C249.422 147.15 249.872 149 250.772 150.7C251.672 152.4 253.472 153.25 256.172 153.25ZM301.741 155.5C296.841 155.5 293.091 154.5 290.491 152.5C287.891 150.5 286.591 148.4 286.591 146.2C286.591 144.6 287.291 143.2 288.691 142C289.991 140.7 292.241 140.05 295.441 140.05C297.441 140.05 299.841 140.35 302.641 140.95C304.741 141.45 306.941 142.1 309.241 142.9C311.641 143.7 314.091 144.05 316.591 143.95C317.291 142.85 317.691 141.95 317.791 141.25C317.891 140.55 317.941 139.7 317.941 138.7C317.941 135.4 317.391 132.65 316.291 130.45C315.291 128.25 314.091 126.1 312.691 124C311.391 121.9 310.291 119.35 309.391 116.35C308.091 118.55 306.441 121.45 304.441 125.05C302.441 128.55 299.141 133.35 294.541 139.45C294.241 139.95 293.641 140.2 292.741 140.2C291.241 140.2 290.491 139.55 290.491 138.25C290.491 137.95 290.741 137.5 291.241 136.9C291.641 136.3 292.641 134.75 294.241 132.25C296.041 129.35 298.141 126.1 300.541 122.5C302.941 118.8 305.241 114.75 307.441 110.35C307.541 108.65 307.891 107 308.491 105.4C309.091 103.8 309.791 102.35 310.591 101.05C311.691 99.25 312.841 97.95 314.041 97.15C315.241 96.25 316.341 95.8 317.341 95.8C319.241 95.8 320.191 96.9 320.191 99.1C320.191 100.6 319.591 102.55 318.391 104.95C317.691 106.45 316.791 107.75 315.691 108.85C314.591 109.85 313.641 110.75 312.841 111.55C313.041 114.05 313.641 116.3 314.641 118.3C315.641 120.3 316.741 122.25 317.941 124.15C319.241 126.05 320.341 128.1 321.241 130.3C322.141 132.5 322.591 135.15 322.591 138.25C322.591 140.25 322.241 142.1 321.541 143.8C323.741 143.9 325.991 143.1 328.291 141.4C330.691 139.6 332.941 137.3 335.041 134.5C337.241 131.7 339.191 128.85 340.891 125.95C341.391 125.25 342.041 124.9 342.841 124.9C343.341 124.9 343.841 125.05 344.341 125.35C344.841 125.65 345.091 126.15 345.091 126.85C345.091 127.25 344.941 127.75 344.641 128.35C341.741 133.55 338.941 137.6 336.241 140.5C333.641 143.3 330.991 145.25 328.291 146.35C325.591 147.45 322.591 148.1 319.291 148.3C316.791 150.6 314.091 152.4 311.191 153.7C308.391 154.9 305.241 155.5 301.741 155.5ZM300.991 151.9C303.291 151.9 305.291 151.55 306.991 150.85C308.691 150.15 310.541 149.15 312.541 147.85C310.441 147.55 308.691 147.2 307.291 146.8C305.891 146.3 304.091 145.8 301.891 145.3C299.091 144.7 296.891 144.4 295.291 144.4C292.391 144.4 290.941 145.1 290.941 146.5C290.941 147.6 291.891 148.8 293.791 150.1C295.691 151.3 298.091 151.9 300.991 151.9ZM384.548 167.65C383.048 167.65 381.948 166.9 381.248 165.4C380.548 163.9 380.098 162.25 379.898 160.45C379.698 158.65 379.598 157.3 379.598 156.4C379.598 153.5 380.148 150.15 381.248 146.35C382.348 142.55 383.748 138.65 385.448 134.65C387.248 130.65 389.048 126.85 390.848 123.25C392.748 119.55 394.448 116.35 395.948 113.65C394.048 112.85 392.098 112.05 390.098 111.25C388.198 110.45 386.248 109.7 384.248 109C383.048 108.5 381.898 107.8 380.798 106.9C379.798 106 379.298 104.9 379.298 103.6C379.298 102.3 379.848 101.35 380.948 100.75C382.048 100.05 383.348 99.6 384.848 99.4C386.448 99.1 387.798 98.95 388.898 98.95C391.398 98.95 393.848 99.2 396.248 99.7C398.748 100.1 401.198 100.6 403.598 101.2C408.298 93.8 413.698 86.35 419.798 78.85C425.898 71.35 432.448 64.7 439.448 58.9C439.948 58.4 440.548 58.15 441.248 58.15C441.848 58.15 442.398 58.4 442.898 58.9C443.498 59.3 443.798 59.8 443.798 60.4C443.798 60.8 443.548 61.25 443.048 61.75C442.248 62.55 441.398 63.3 440.498 64C439.598 64.7 438.748 65.45 437.948 66.25C436.648 67.45 435.398 68.65 434.198 69.85C432.998 71.05 431.798 72.25 430.598 73.45C426.398 77.85 422.498 82.55 418.898 87.55C415.398 92.45 412.048 97.4 408.848 102.4C418.348 104.6 427.748 107 437.048 109.6C446.448 112.1 455.898 114.3 465.398 116.2C469.798 108.4 474.698 100.5 480.098 92.5C485.598 84.5 491.548 77.15 497.948 70.45C499.948 68.35 501.948 66.25 503.948 64.15C505.948 61.95 508.048 59.9 510.248 58C510.548 57.8 510.848 57.6 511.148 57.4C511.448 57.2 511.798 57.1 512.198 57.1C512.898 57.1 513.448 57.35 513.848 57.85C514.348 58.25 514.598 58.7 514.598 59.2C514.598 59.5 514.398 59.95 513.998 60.55C512.098 62.65 510.098 64.75 507.998 66.85C505.898 68.85 503.848 70.9 501.848 73C495.748 79.7 490.148 86.85 485.048 94.45C479.948 101.95 475.248 109.55 470.948 117.25C472.948 117.55 474.998 117.95 477.098 118.45C479.298 118.85 481.398 119.05 483.398 119.05C484.498 119.05 485.898 118.8 487.598 118.3C489.298 117.8 490.148 116.9 490.148 115.6C490.148 114.7 489.798 114 489.098 113.5C488.498 113 487.848 112.55 487.148 112.15C486.448 111.65 486.098 111.1 486.098 110.5C486.098 109.9 486.348 109.4 486.848 109C487.348 108.5 487.898 108.25 488.498 108.25C490.098 108.25 491.498 109.15 492.698 110.95C493.998 112.75 494.648 114.25 494.648 115.45C494.648 118.15 493.348 120.15 490.748 121.45C488.248 122.75 485.698 123.4 483.098 123.4C480.698 123.4 478.248 123.2 475.748 122.8C473.348 122.3 470.998 121.8 468.698 121.3C466.198 126.1 463.848 131 461.648 136C459.548 140.9 457.798 145.9 456.398 151C457.398 152.2 458.298 153.45 459.098 154.75C459.998 156.15 460.448 157.6 460.448 159.1C460.448 160.5 459.948 161.75 458.948 162.85C457.948 164.05 456.598 164.65 454.898 164.65C453.598 164.65 452.598 164.3 451.898 163.6C451.198 163 450.698 162.2 450.398 161.2C450.198 160.4 449.998 159.5 449.798 158.5C449.598 157.6 449.498 156.7 449.498 155.8C449.498 155.1 449.548 154.45 449.648 153.85C449.848 153.15 449.998 152.45 450.098 151.75C446.898 146.35 442.548 141.45 437.048 137.05C431.648 132.55 425.748 128.55 419.348 125.05C412.948 121.45 406.698 118.3 400.598 115.6C399.298 118 397.698 121 395.798 124.6C393.998 128.2 392.198 132.05 390.398 136.15C388.698 140.15 387.248 144.05 386.048 147.85C384.948 151.55 384.398 154.7 384.398 157.3C384.398 159.1 384.648 160.4 385.148 161.2C385.648 162.1 386.148 162.75 386.648 163.15C387.148 163.65 387.398 164.25 387.398 164.95C387.398 165.65 387.098 166.25 386.498 166.75C385.998 167.35 385.348 167.65 384.548 167.65ZM398.198 109.9C398.698 109.1 399.198 108.3 399.698 107.5C400.198 106.6 400.748 105.75 401.348 104.95C399.348 104.45 397.248 104 395.048 103.6C392.848 103.1 390.698 102.85 388.598 102.85C388.198 102.85 387.448 102.95 386.348 103.15C385.248 103.25 384.698 103.55 384.698 104.05C384.698 104.45 384.948 104.75 385.448 104.95C385.948 105.15 386.348 105.35 386.648 105.55C388.548 106.35 390.448 107.1 392.348 107.8C394.348 108.4 396.298 109.1 398.198 109.9ZM452.048 145.6C453.648 141.3 455.348 137.05 457.148 132.85C459.048 128.55 461.098 124.4 463.298 120.4C453.698 118.3 444.198 115.95 434.798 113.35C425.398 110.75 415.948 108.3 406.448 106C405.048 108.1 403.848 110.1 402.848 112C412.048 116 420.948 120.8 429.548 126.4C438.248 132 445.748 138.4 452.048 145.6ZM503.909 155.5C498.709 155.5 495.059 154 492.959 151C490.959 147.9 489.959 144.3 489.959 140.2C489.959 137.2 490.709 133.65 492.209 129.55C493.709 125.35 495.759 121.25 498.359 117.25C501.059 113.25 504.159 109.95 507.659 107.35C511.159 104.65 514.909 103.3 518.909 103.3C521.509 103.3 523.559 104.05 525.059 105.55C526.659 106.95 527.459 108.75 527.459 110.95C527.459 115.15 526.109 119.2 523.409 123.1C520.709 127 517.209 130.2 512.909 132.7C508.609 135.2 504.009 136.45 499.109 136.45C498.509 136.45 497.909 136.45 497.309 136.45C496.709 136.35 496.109 136.25 495.509 136.15C495.209 137.45 495.059 138.95 495.059 140.65C495.059 143.25 495.659 145.65 496.859 147.85C498.159 150.05 500.609 151.15 504.209 151.15C507.209 151.15 510.109 150.4 512.909 148.9C515.709 147.4 518.059 145.7 519.959 143.8C521.859 141.9 523.459 140.2 524.759 138.7C526.059 137.2 527.409 135.5 528.809 133.6C530.209 131.6 531.959 129 534.059 125.8C534.459 125.1 535.059 124.75 535.859 124.75C537.259 124.75 537.959 125.5 537.959 127C537.959 127.5 537.859 127.9 537.659 128.2C534.959 132.8 531.959 137.2 528.659 141.4C525.359 145.5 521.659 148.9 517.559 151.6C513.559 154.2 509.009 155.5 503.909 155.5ZM500.159 131.8C503.959 131.8 507.509 130.8 510.809 128.8C514.209 126.7 516.959 124.1 519.059 121C521.259 117.9 522.359 114.75 522.359 111.55C522.359 110.45 522.059 109.55 521.459 108.85C520.959 108.15 520.059 107.8 518.759 107.8C516.159 107.8 513.659 108.7 511.259 110.5C508.859 112.2 506.659 114.4 504.659 117.1C502.759 119.7 501.109 122.3 499.709 124.9C498.409 127.5 497.459 129.7 496.859 131.5C497.359 131.6 497.859 131.7 498.359 131.8C498.959 131.8 499.559 131.8 500.159 131.8ZM541.942 154.45C541.442 154.45 540.892 154.3 540.292 154C539.692 153.7 539.392 153.3 539.392 152.8C539.392 152 539.542 151.3 539.842 150.7C540.942 148.3 542.342 145.35 544.042 141.85C545.842 138.35 547.592 134.75 549.292 131.05C551.092 127.25 552.592 123.7 553.792 120.4C555.092 117.1 555.742 114.45 555.742 112.45C555.742 111.85 555.592 111.3 555.292 110.8C555.092 110.2 554.592 109.9 553.792 109.9C552.592 109.9 551.392 110.4 550.192 111.4C549.092 112.4 548.092 113.55 547.192 114.85C546.292 116.05 545.542 117.05 544.942 117.85C542.942 120.55 541.242 123.05 539.842 125.35C538.442 127.55 536.992 129.75 535.492 131.95C534.092 134.05 532.342 136.4 530.242 139C529.942 139.4 529.592 139.75 529.192 140.05C528.892 140.25 528.442 140.35 527.842 140.35C527.242 140.35 526.742 140.05 526.342 139.45C525.842 138.85 525.742 138.3 526.042 137.8C528.242 134.3 530.392 131 532.492 127.9C534.592 124.7 536.442 121.95 538.042 119.65C539.642 117.35 540.742 115.8 541.342 115C543.042 112.8 544.792 110.7 546.592 108.7C548.492 106.7 551.042 105.7 554.242 105.7C556.942 105.7 558.792 106.45 559.792 107.95C560.892 109.45 561.442 111.2 561.442 113.2C561.442 116.8 559.942 121.45 556.942 127.15C560.642 123.25 564.592 119.7 568.792 116.5C573.092 113.3 577.092 110.65 580.792 108.55C584.492 106.35 587.292 105 589.192 104.5C590.092 104.2 590.992 103.95 591.892 103.75C592.892 103.55 593.792 103.45 594.592 103.45C595.592 103.45 596.392 103.7 596.992 104.2C597.692 104.7 598.042 105.65 598.042 107.05C598.042 108.45 597.142 110.45 595.342 113.05C593.542 115.55 591.342 118.45 588.742 121.75C586.242 124.95 583.842 128.2 581.542 131.5C579.242 134.8 577.592 137.9 576.592 140.8C576.292 141.5 576.092 142.2 575.992 142.9C575.892 143.5 575.842 144.05 575.842 144.55C575.842 147.25 577.092 148.6 579.592 148.6C581.192 148.6 583.192 147.8 585.592 146.2C586.992 145.3 588.342 144.3 589.642 143.2C591.042 142 592.092 140.95 592.792 140.05C594.292 138.35 595.492 136.9 596.392 135.7C597.392 134.5 598.342 133.2 599.242 131.8C600.242 130.3 601.492 128.45 602.992 126.25C603.292 125.75 603.592 125.4 603.892 125.2C604.192 125 604.692 124.9 605.392 124.9C606.492 124.9 607.042 125.6 607.042 127C607.042 127.6 606.592 128.65 605.692 130.15C604.792 131.55 603.692 133.15 602.392 134.95C601.192 136.65 599.992 138.25 598.792 139.75C597.692 141.15 596.892 142.15 596.392 142.75C595.292 144.05 593.892 145.4 592.192 146.8C590.592 148.2 588.942 149.4 587.242 150.4C585.642 151.3 583.992 151.95 582.292 152.35C580.592 152.75 578.942 152.95 577.342 152.95C574.742 152.95 572.842 152.2 571.642 150.7C570.542 149.2 569.992 147.6 569.992 145.9C569.992 143.3 570.842 140.35 572.542 137.05C574.342 133.65 576.442 130.3 578.842 127C581.342 123.6 583.642 120.55 585.742 117.85C587.942 115.15 589.442 113.2 590.242 112C590.442 111.7 590.592 111.45 590.692 111.25C590.792 110.95 590.842 110.7 590.842 110.5C590.842 109.7 590.242 109.3 589.042 109.3C588.442 109.3 587.742 109.45 586.942 109.75C582.842 111.45 578.542 113.95 574.042 117.25C569.642 120.55 565.542 124.15 561.742 128.05C558.042 131.85 555.092 135.45 552.892 138.85L546.892 148.3C546.392 149.1 545.942 149.95 545.542 150.85C545.142 151.65 544.692 152.45 544.192 153.25C543.592 154.05 542.842 154.45 541.942 154.45ZM619.782 156.1C617.882 156.1 616.232 155.5 614.832 154.3C613.532 153.1 612.882 151.2 612.882 148.6C612.882 146.5 613.282 144.35 614.082 142.15C614.882 139.85 615.632 138.05 616.332 136.75C617.932 133.55 619.632 130.6 621.432 127.9C623.232 125.1 624.582 123.1 625.482 121.9C623.682 122 621.532 121.55 619.032 120.55C616.632 119.55 614.932 118.25 613.932 116.65C612.632 118.55 610.782 121.65 608.382 125.95C605.982 130.15 602.932 134.6 599.232 139.3C598.632 140.1 597.932 140.5 597.132 140.5C595.632 140.5 594.882 139.85 594.882 138.55C594.882 138.05 595.032 137.6 595.332 137.2C596.832 135.1 598.682 132.4 600.882 129.1C603.182 125.7 605.382 122.2 607.482 118.6C609.682 114.9 611.432 111.6 612.732 108.7C613.132 107.8 613.532 106.85 613.932 105.85C614.432 104.85 614.882 103.9 615.282 103C615.682 102.3 616.232 101.7 616.932 101.2C617.632 100.6 618.432 100.3 619.332 100.3C620.132 100.3 620.932 100.65 621.732 101.35C622.532 101.95 622.932 102.65 622.932 103.45C622.932 104.35 622.582 105.5 621.882 106.9C621.282 108.2 620.632 109.55 619.932 110.95C619.232 112.35 618.882 113.6 618.882 114.7C618.882 115.6 619.632 116.2 621.132 116.5C622.632 116.8 623.732 116.95 624.432 116.95C627.132 116.95 629.382 116.4 631.182 115.3C632.982 114.2 634.232 113.65 634.932 113.65C635.532 113.65 636.032 113.9 636.432 114.4C636.932 114.8 637.182 115.25 637.182 115.75C637.182 116.45 636.882 117.05 636.282 117.55C634.882 118.85 633.232 120.7 631.332 123.1C629.432 125.5 627.532 128.1 625.632 130.9C623.732 133.7 622.082 136.45 620.682 139.15C620.282 140.15 619.682 141.55 618.882 143.35C618.182 145.15 617.832 146.85 617.832 148.45C617.832 151.15 618.782 152.5 620.682 152.5C621.482 152.5 622.382 152.2 623.382 151.6C624.482 151 625.532 150.3 626.532 149.5C628.932 147.3 631.032 145.15 632.832 143.05C634.732 140.85 636.632 138.4 638.532 135.7C640.432 133 642.632 129.75 645.132 125.95C645.532 125.25 646.232 124.9 647.232 124.9C648.532 124.9 649.182 125.5 649.182 126.7C649.182 127.3 648.882 128.15 648.282 129.25C646.882 131.75 645.032 134.5 642.732 137.5C640.532 140.5 638.232 143.35 635.832 146.05C633.532 148.65 631.482 150.65 629.682 152.05C626.482 154.75 623.182 156.1 619.782 156.1ZM668.12 92.8C667.62 92.8 667.07 92.7 666.47 92.5C665.87 92.3 665.57 91.85 665.57 91.15C665.57 90.65 665.72 90.2 666.02 89.8C666.82 88.3 668.27 87 670.37 85.9C672.57 84.8 674.22 84.25 675.32 84.25C675.82 84.25 676.37 84.4 676.97 84.7C677.57 84.9 677.87 85.35 677.87 86.05C677.87 87.75 676.82 89.3 674.72 90.7C672.72 92.1 670.52 92.8 668.12 92.8ZM651.32 154.15C647.92 154.15 645.22 153.2 643.22 151.3C641.22 149.4 640.22 146.75 640.22 143.35C640.22 141.35 640.42 139.4 640.82 137.5C641.22 135.5 641.77 133.55 642.47 131.65C642.87 130.55 643.67 128.75 644.87 126.25C646.17 123.65 647.67 120.95 649.37 118.15C651.07 115.25 652.72 112.8 654.32 110.8C655.92 108.8 657.32 107.8 658.52 107.8C659.02 107.8 659.67 108 660.47 108.4C661.37 108.7 661.82 109.2 661.82 109.9C661.82 110.3 661.62 110.8 661.22 111.4C658.92 114 656.52 117.1 654.02 120.7C651.52 124.3 649.42 128.05 647.72 131.95C646.02 135.85 645.17 139.6 645.17 143.2C645.17 147.8 647.37 150.1 651.77 150.1C654.77 150.1 657.77 148.65 660.77 145.75C663.87 142.85 667.27 138.95 670.97 134.05C672.07 132.65 673.02 131.3 673.82 130C674.72 128.6 675.52 127.4 676.22 126.4C676.92 125.7 677.67 125.35 678.47 125.35C679.67 125.35 680.27 125.8 680.27 126.7C680.27 127.8 679.47 129.55 677.87 131.95C676.27 134.35 674.47 136.85 672.47 139.45C668.57 144.25 665.17 147.9 662.27 150.4C659.37 152.9 655.72 154.15 651.32 154.15ZM701.421 197.05C698.021 197.05 695.321 196.2 693.321 194.5C691.321 192.9 689.871 190.85 688.971 188.35C688.071 185.85 687.621 183.35 687.621 180.85C687.621 178.15 688.021 175.05 688.821 171.55C689.621 168.05 690.571 164.55 691.671 161.05C692.771 157.55 693.771 154.5 694.671 151.9C695.371 150.2 695.971 148.6 696.471 147.1C697.071 145.6 697.621 144.2 698.121 142.9C694.721 146 691.271 148.75 687.771 151.15C684.271 153.45 681.271 154.6 678.771 154.6C675.471 154.6 673.171 153.75 671.871 152.05C670.671 150.25 670.071 148.1 670.071 145.6C670.071 143.2 670.471 140.7 671.271 138.1C672.071 135.5 672.921 133.1 673.821 130.9C674.821 128.6 675.621 126.9 676.221 125.8C678.021 122.7 680.021 119.7 682.221 116.8C684.521 113.9 686.971 111.35 689.571 109.15C692.171 106.85 694.821 105.1 697.521 103.9C700.321 102.6 703.121 101.95 705.921 101.95C710.721 101.95 714.121 103.25 716.121 105.85C718.121 108.35 719.121 111.05 719.121 113.95C719.121 114.95 718.971 116 718.671 117.1C718.271 118.6 717.771 119.9 717.171 121C716.671 122.1 716.021 122.65 715.221 122.65C714.521 122.65 713.871 122.3 713.271 121.6C712.671 120.9 712.471 120.2 712.671 119.5C712.871 118.8 713.121 118.1 713.421 117.4C713.821 116.7 714.071 116 714.171 115.3C714.271 114.8 714.321 114.35 714.321 113.95C714.421 113.55 714.471 113.15 714.471 112.75C714.471 110.05 713.571 108.2 711.771 107.2C710.071 106.1 708.221 105.55 706.221 105.55C703.921 105.55 701.521 106.2 699.021 107.5C696.621 108.8 694.521 110.3 692.721 112C690.521 114.2 688.321 116.75 686.121 119.65C683.921 122.55 682.021 125.5 680.421 128.5C680.221 129 679.671 130.2 678.771 132.1C677.971 134 677.171 136.15 676.371 138.55C675.671 140.85 675.321 143 675.321 145C675.321 146.4 675.621 147.6 676.221 148.6C676.921 149.6 678.071 150.1 679.671 150.1C681.271 150.1 683.171 149.35 685.371 147.85C687.671 146.35 689.971 144.5 692.271 142.3C694.671 140.1 696.871 137.95 698.871 135.85C700.871 133.65 702.371 131.9 703.371 130.6C703.971 129.4 704.671 127.9 705.471 126.1C706.271 124.2 707.621 123.25 709.521 123.25C711.521 123.25 712.521 124.2 712.521 126.1C712.521 127.4 712.121 128.75 711.321 130.15C710.621 131.45 709.871 132.65 709.071 133.75C707.371 136.15 705.571 139.4 703.671 143.5C701.771 147.6 699.971 152 698.271 156.7C696.571 161.4 695.171 165.9 694.071 170.2C693.071 174.6 692.571 178.2 692.571 181C692.571 182.7 692.821 184.45 693.321 186.25C693.921 188.15 694.921 189.7 696.321 190.9C697.721 192.1 699.621 192.7 702.021 192.7C702.821 192.7 703.621 192.55 704.421 192.25C705.221 192.05 706.021 191.95 706.821 191.95C707.521 191.95 708.071 192.15 708.471 192.55C708.871 193.05 709.071 193.55 709.071 194.05C709.071 194.85 708.571 195.45 707.571 195.85C706.571 196.35 705.471 196.65 704.271 196.75C703.071 196.95 702.121 197.05 701.421 197.05ZM750.671 157.3C748.971 157.3 747.421 156.8 746.021 155.8C744.621 154.8 743.921 153.05 743.921 150.55C743.921 147.35 744.721 143.95 746.321 140.35C748.021 136.75 750.121 132.8 752.621 128.5C749.421 132.2 745.821 136.2 741.821 140.5C737.921 144.8 734.021 148.25 730.121 150.85C726.721 153.05 723.921 154.15 721.721 154.15C719.921 154.15 718.571 153.55 717.671 152.35C716.671 151.15 716.171 149.6 716.171 147.7C716.171 145.5 716.671 143.35 717.671 141.25C719.871 136.05 722.371 130.4 725.171 124.3C727.971 118.1 730.921 112.65 734.021 107.95C734.321 107.55 734.621 107.25 734.921 107.05C735.321 106.75 735.771 106.6 736.271 106.6C736.971 106.6 737.571 106.8 738.071 107.2C738.671 107.6 738.971 108.1 738.971 108.7C738.971 108.9 738.871 109.2 738.671 109.6C738.071 111 736.971 113.25 735.371 116.35C733.871 119.35 732.121 122.8 730.121 126.7C728.121 130.6 726.071 134.6 723.971 138.7C722.371 141.8 721.571 144.5 721.571 146.8C721.571 148.6 722.221 149.5 723.521 149.5C724.121 149.5 724.771 149.3 725.471 148.9C728.471 147.2 731.121 145.2 733.421 142.9C735.721 140.6 737.971 138.25 740.171 135.85C741.571 134.35 742.921 132.85 744.221 131.35C745.621 129.85 746.971 128.3 748.271 126.7C748.771 126.2 749.721 125 751.121 123.1C752.621 121.2 754.271 119.1 756.071 116.8C757.871 114.4 759.471 112.3 760.871 110.5C762.371 108.6 763.271 107.45 763.571 107.05C764.371 106.25 765.571 105.85 767.171 105.85C767.971 105.85 768.671 106.05 769.271 106.45C769.971 106.75 770.321 107.3 770.321 108.1C770.321 108.8 769.821 110 768.821 111.7C767.921 113.3 766.821 115.1 765.521 117.1C764.221 119 762.971 120.75 761.771 122.35C760.571 123.95 759.721 125.15 759.221 125.95C758.821 126.65 758.071 128 756.971 130C755.871 131.9 754.671 134.15 753.371 136.75C752.171 139.25 751.121 141.7 750.221 144.1C749.321 146.5 748.871 148.5 748.871 150.1C748.871 151.9 749.621 152.8 751.121 152.8C752.721 152.8 754.571 151.8 756.671 149.8C758.771 147.8 760.971 145.35 763.271 142.45C765.571 139.45 767.721 136.5 769.721 133.6C771.721 130.6 773.421 128.1 774.821 126.1C775.221 125.6 775.621 125.3 776.021 125.2C776.421 125.1 776.721 125.05 776.921 125.05C777.921 125.05 778.521 125.65 778.721 126.85C778.721 127.15 778.371 128 777.671 129.4C776.971 130.8 776.271 131.95 775.571 132.85C774.671 134.15 773.271 136.15 771.371 138.85C769.571 141.45 767.471 144.25 765.071 147.25C762.771 150.15 760.221 152.75 757.421 155.05C755.621 156.55 753.371 157.3 750.671 157.3ZM785.159 155.5C779.959 155.5 776.309 154 774.209 151C772.209 147.9 771.209 144.3 771.209 140.2C771.209 137.2 771.959 133.65 773.459 129.55C774.959 125.35 777.009 121.25 779.609 117.25C782.309 113.25 785.409 109.95 788.909 107.35C792.409 104.65 796.159 103.3 800.159 103.3C802.759 103.3 804.809 104.05 806.309 105.55C807.909 106.95 808.709 108.75 808.709 110.95C808.709 115.15 807.359 119.2 804.659 123.1C801.959 127 798.459 130.2 794.159 132.7C789.859 135.2 785.259 136.45 780.359 136.45C779.759 136.45 779.159 136.45 778.559 136.45C777.959 136.35 777.359 136.25 776.759 136.15C776.459 137.45 776.309 138.95 776.309 140.65C776.309 143.25 776.909 145.65 778.109 147.85C779.409 150.05 781.859 151.15 785.459 151.15C788.459 151.15 791.359 150.4 794.159 148.9C796.959 147.4 799.309 145.7 801.209 143.8C803.109 141.9 804.709 140.2 806.009 138.7C807.309 137.2 808.659 135.5 810.059 133.6C811.459 131.6 813.209 129 815.309 125.8C815.709 125.1 816.309 124.75 817.109 124.75C818.509 124.75 819.209 125.5 819.209 127C819.209 127.5 819.109 127.9 818.909 128.2C816.209 132.8 813.209 137.2 809.909 141.4C806.609 145.5 802.909 148.9 798.809 151.6C794.809 154.2 790.259 155.5 785.159 155.5ZM781.409 131.8C785.209 131.8 788.759 130.8 792.059 128.8C795.459 126.7 798.209 124.1 800.309 121C802.509 117.9 803.609 114.75 803.609 111.55C803.609 110.45 803.309 109.55 802.709 108.85C802.209 108.15 801.309 107.8 800.009 107.8C797.409 107.8 794.909 108.7 792.509 110.5C790.109 112.2 787.909 114.4 785.909 117.1C784.009 119.7 782.359 122.3 780.959 124.9C779.659 127.5 778.709 129.7 778.109 131.5C778.609 131.6 779.109 131.7 779.609 131.8C780.209 131.8 780.809 131.8 781.409 131.8ZM955.018 167.35C953.518 167.35 952.318 166.75 951.418 165.55C950.618 164.35 950.068 162.95 949.768 161.35C949.468 159.85 949.318 158.65 949.318 157.75C949.318 156.05 949.468 154.4 949.768 152.8C950.168 151.2 950.568 149.6 950.968 148C953.268 140.6 956.168 133.5 959.668 126.7C963.268 119.8 967.018 113 970.918 106.3C972.818 103 974.868 99.1 977.068 94.6C979.368 90 981.368 85.35 983.068 80.65C984.768 75.95 985.618 71.75 985.618 68.05C985.618 65.65 985.018 63.5 983.818 61.6C982.718 59.6 980.518 58.6 977.218 58.6H976.918C972.318 58.6 967.518 59.95 962.518 62.65C957.518 65.35 952.518 68.9 947.518 73.3C942.618 77.6 937.918 82.25 933.418 87.25C928.918 92.15 924.818 96.95 921.118 101.65C917.518 106.25 914.568 110.15 912.268 113.35C910.668 115.55 909.218 117.8 907.918 120.1C906.618 122.3 905.268 124.55 903.868 126.85C901.968 130.25 900.018 133.7 898.018 137.2C896.018 140.7 894.018 144.15 892.018 147.55C891.218 149.15 890.368 150.7 889.468 152.2C888.568 153.7 887.618 155.2 886.618 156.7C886.518 156.9 886.168 157.15 885.568 157.45C884.968 157.85 884.518 158.05 884.218 158.05C883.618 158.05 883.068 157.8 882.568 157.3C882.068 156.9 881.818 156.4 881.818 155.8C881.818 155.6 881.818 155.45 881.818 155.35C881.918 155.25 881.968 155.15 881.968 155.05C884.568 149.45 887.418 143.9 890.518 138.4C893.618 132.8 896.568 127.25 899.368 121.75C904.568 111.65 909.268 101.45 913.468 91.15C917.768 80.75 920.968 70.1 923.068 59.2C923.168 58.7 923.218 58.2 923.218 57.7C923.318 57.1 923.368 56.5 923.368 55.9C923.368 52.6 922.268 50.25 920.068 48.85C917.868 47.45 915.018 46.75 911.518 46.75C908.618 46.75 905.318 47.15 901.618 47.95C898.018 48.75 894.468 49.8 890.968 51.1C887.468 52.3 884.418 53.6 881.818 55C878.118 56.9 874.268 59.3 870.268 62.2C866.268 65.1 862.518 68.2 859.018 71.5C855.618 74.8 852.818 78.1 850.618 81.4C849.218 83.6 848.068 86.05 847.168 88.75C846.268 91.45 845.818 94.1 845.818 96.7C845.818 99.8 846.618 102.25 848.218 104.05C849.918 105.85 852.668 106.75 856.468 106.75C859.168 106.75 861.268 106.25 862.768 105.25C864.368 104.25 865.818 103.75 867.118 103.75C868.418 103.75 869.068 104.3 869.068 105.4C869.068 106.6 868.268 107.65 866.668 108.55C865.068 109.35 863.268 110 861.268 110.5C859.268 110.9 857.718 111.1 856.618 111.1C851.518 111.1 847.568 109.8 844.768 107.2C841.968 104.5 840.568 101 840.568 96.7C840.568 93.7 841.118 90.65 842.218 87.55C843.318 84.45 844.718 81.6 846.418 79C848.718 75.6 851.718 72.2 855.418 68.8C859.218 65.3 863.268 62.05 867.568 59.05C871.868 55.95 875.868 53.4 879.568 51.4C882.468 49.8 885.868 48.3 889.768 46.9C893.668 45.4 897.618 44.2 901.618 43.3C905.718 42.4 909.418 41.95 912.718 41.95C917.718 41.95 921.618 43.05 924.418 45.25C927.218 47.45 928.618 50.75 928.618 55.15C928.618 58.05 928.118 61.55 927.118 65.65C926.218 69.75 925.018 74 923.518 78.4C922.018 82.8 920.468 87 918.868 91C917.368 95 916.018 98.45 914.818 101.35L915.418 101.65C917.718 98.85 920.618 95.45 924.118 91.45C927.718 87.45 931.668 83.3 935.968 79C940.368 74.7 944.968 70.7 949.768 67C954.568 63.3 959.318 60.3 964.018 58C968.718 55.6 973.218 54.4 977.518 54.4C982.318 54.4 985.818 55.5 988.018 57.7C990.318 59.9 991.468 63.05 991.468 67.15C991.468 71.25 990.568 75.85 988.768 80.95C986.968 85.95 984.818 90.9 982.318 95.8C979.918 100.6 977.668 104.8 975.568 108.4C971.768 115 968.118 121.65 964.618 128.35C961.218 135.05 958.368 142 956.068 149.2C955.568 150.8 955.068 152.4 954.568 154C954.168 155.6 953.968 157.25 953.968 158.95C953.968 160.75 954.268 161.9 954.868 162.4C955.468 162.9 956.068 163.25 956.668 163.45C957.268 163.65 957.568 164.2 957.568 165.1C957.568 165.7 957.318 166.2 956.818 166.6C956.318 167.1 955.718 167.35 955.018 167.35ZM981.847 154.6C978.547 154.6 976.247 153.75 974.947 152.05C973.747 150.25 973.147 148.1 973.147 145.6C973.147 143.2 973.547 140.7 974.347 138.1C975.147 135.5 975.997 133.1 976.897 130.9C977.897 128.6 978.697 126.9 979.297 125.8C981.097 122.7 983.097 119.7 985.297 116.8C987.597 113.9 990.047 111.35 992.647 109.15C995.247 106.85 997.897 105.1 1000.6 103.9C1003.4 102.6 1006.2 101.95 1009 101.95C1013.8 101.95 1017.2 103.25 1019.2 105.85C1021.2 108.35 1022.2 111.05 1022.2 113.95C1022.2 114.95 1022.05 116 1021.75 117.1C1021.35 118.6 1020.85 119.9 1020.25 121C1019.75 122.1 1019.1 122.65 1018.3 122.65C1017.6 122.65 1016.95 122.3 1016.35 121.6C1015.75 120.9 1015.55 120.2 1015.75 119.5C1015.95 118.8 1016.2 118.1 1016.5 117.4C1016.9 116.7 1017.15 116 1017.25 115.3C1017.35 114.8 1017.4 114.35 1017.4 113.95C1017.5 113.55 1017.55 113.15 1017.55 112.75C1017.55 110.05 1016.65 108.2 1014.85 107.2C1013.15 106.1 1011.3 105.55 1009.3 105.55C1007 105.55 1004.6 106.2 1002.1 107.5C999.697 108.8 997.597 110.3 995.797 112C993.597 114.2 991.397 116.75 989.197 119.65C986.997 122.55 985.097 125.5 983.497 128.5C983.297 129 982.747 130.2 981.847 132.1C981.047 134 980.247 136.15 979.447 138.55C978.747 140.85 978.397 143 978.397 145C978.397 146.4 978.697 147.6 979.297 148.6C979.997 149.6 981.147 150.1 982.747 150.1C984.447 150.1 986.397 149.3 988.597 147.7C990.897 146.1 993.197 144.15 995.497 141.85C997.897 139.45 1000.05 137.15 1001.95 134.95C1003.85 132.75 1005.25 131.05 1006.15 129.85C1006.75 129.05 1007.3 128.2 1007.8 127.3C1008.4 126.3 1009 125.4 1009.6 124.6C1009.9 124.2 1010.5 124 1011.4 124C1012.2 124 1013 124.25 1013.8 124.75C1014.7 125.15 1015.05 125.75 1014.85 126.55C1014.45 127.25 1013.7 128.8 1012.6 131.2C1011.6 133.5 1010.65 136.05 1009.75 138.85C1008.85 141.55 1008.4 143.95 1008.4 146.05C1008.4 148.65 1009.2 150.15 1010.8 150.55C1011.9 150.75 1013.05 150.35 1014.25 149.35C1015.55 148.35 1016.7 147.2 1017.7 145.9C1018.8 144.6 1019.6 143.65 1020.1 143.05C1022.2 140.25 1024.15 137.4 1025.95 134.5C1027.85 131.5 1029.75 128.7 1031.65 126.1C1032.25 125.3 1032.95 124.9 1033.75 124.9C1035.15 124.9 1035.85 125.65 1035.85 127.15C1035.85 127.65 1035.2 128.95 1033.9 131.05C1032.6 133.05 1031 135.35 1029.1 137.95C1027.3 140.55 1025.6 142.9 1024 145C1022.4 147.1 1020.6 149.15 1018.6 151.15C1016.6 153.15 1014.05 154.15 1010.95 154.15C1008.05 154.15 1006.05 153.5 1004.95 152.2C1003.95 150.9 1003.45 149.45 1003.45 147.85C1003.45 146.45 1003.6 145 1003.9 143.5C1004.2 141.9 1004.5 140.55 1004.8 139.45L1004.2 139C1003.3 140.1 1001.95 141.5 1000.15 143.2C998.347 144.9 996.347 146.65 994.147 148.45C991.947 150.15 989.747 151.6 987.547 152.8C985.447 154 983.547 154.6 981.847 154.6ZM1036.54 155.65C1034.64 155.65 1033.39 154.8 1032.79 153.1C1032.19 151.4 1031.89 149.9 1031.89 148.6C1031.89 146.3 1032.19 143.35 1032.79 139.75C1033.39 136.15 1034.19 132.4 1035.19 128.5C1033.99 130.4 1032.69 132.3 1031.29 134.2C1029.99 136.1 1028.79 137.85 1027.69 139.45C1027.29 140.15 1026.69 140.5 1025.89 140.5C1025.19 140.5 1024.59 140.2 1024.09 139.6C1023.49 139 1023.44 138.35 1023.94 137.65C1025.24 135.75 1026.94 133.2 1029.04 130C1031.24 126.8 1033.44 123.45 1035.64 119.95C1037.84 116.45 1039.69 113.4 1041.19 110.8C1041.69 109.9 1042.14 109.1 1042.54 108.4C1043.04 107.6 1043.49 106.9 1043.89 106.3C1044.59 105.6 1045.54 105.25 1046.74 105.25C1047.44 105.25 1048.04 105.45 1048.54 105.85C1049.14 106.25 1049.44 106.8 1049.44 107.5C1049.44 107.7 1049.39 107.9 1049.29 108.1C1049.19 108.3 1049.09 108.5 1048.99 108.7C1047.99 110.3 1047.09 111.95 1046.29 113.65C1045.49 115.35 1044.79 117.05 1044.19 118.75C1042.69 123.35 1041.24 128.15 1039.84 133.15C1038.54 138.05 1037.79 142.9 1037.59 147.7L1038.19 147.85C1040.49 144.25 1043.29 140.35 1046.59 136.15C1049.99 131.85 1053.69 127.6 1057.69 123.4C1061.69 119.1 1065.79 115.2 1069.99 111.7C1074.19 108.1 1078.24 105.2 1082.14 103C1082.74 102.7 1083.29 102.55 1083.79 102.55C1084.49 102.55 1085.09 102.8 1085.59 103.3C1086.09 103.7 1086.34 104.2 1086.34 104.8C1086.34 105.4 1085.99 105.95 1085.29 106.45C1083.69 107.45 1082.09 108.5 1080.49 109.6C1078.99 110.7 1077.49 111.8 1075.99 112.9C1070.19 117.3 1064.89 122.15 1060.09 127.45C1055.29 132.65 1050.94 138.15 1047.04 143.95C1046.14 145.25 1045.29 146.6 1044.49 148C1043.69 149.4 1042.89 150.8 1042.09 152.2C1041.49 153 1040.69 153.75 1039.69 154.45C1038.79 155.25 1037.74 155.65 1036.54 155.65ZM1082.04 154.6C1078.74 154.6 1076.44 153.75 1075.14 152.05C1073.94 150.25 1073.34 148.1 1073.34 145.6C1073.34 143.2 1073.74 140.7 1074.54 138.1C1075.34 135.5 1076.19 133.1 1077.09 130.9C1078.09 128.6 1078.89 126.9 1079.49 125.8C1081.29 122.7 1083.29 119.7 1085.49 116.8C1087.79 113.9 1090.24 111.35 1092.84 109.15C1095.44 106.85 1098.09 105.1 1100.79 103.9C1103.59 102.6 1106.39 101.95 1109.19 101.95C1113.99 101.95 1117.39 103.25 1119.39 105.85C1121.39 108.35 1122.39 111.05 1122.39 113.95C1122.39 114.95 1122.24 116 1121.94 117.1C1121.54 118.6 1121.04 119.9 1120.44 121C1119.94 122.1 1119.29 122.65 1118.49 122.65C1117.79 122.65 1117.14 122.3 1116.54 121.6C1115.94 120.9 1115.74 120.2 1115.94 119.5C1116.14 118.8 1116.39 118.1 1116.69 117.4C1117.09 116.7 1117.34 116 1117.44 115.3C1117.54 114.8 1117.59 114.35 1117.59 113.95C1117.69 113.55 1117.74 113.15 1117.74 112.75C1117.74 110.05 1116.84 108.2 1115.04 107.2C1113.34 106.1 1111.49 105.55 1109.49 105.55C1107.19 105.55 1104.79 106.2 1102.29 107.5C1099.89 108.8 1097.79 110.3 1095.99 112C1093.79 114.2 1091.59 116.75 1089.39 119.65C1087.19 122.55 1085.29 125.5 1083.69 128.5C1083.49 129 1082.94 130.2 1082.04 132.1C1081.24 134 1080.44 136.15 1079.64 138.55C1078.94 140.85 1078.59 143 1078.59 145C1078.59 146.4 1078.89 147.6 1079.49 148.6C1080.19 149.6 1081.34 150.1 1082.94 150.1C1084.64 150.1 1086.59 149.3 1088.79 147.7C1091.09 146.1 1093.39 144.15 1095.69 141.85C1098.09 139.45 1100.24 137.15 1102.14 134.95C1104.04 132.75 1105.44 131.05 1106.34 129.85C1106.94 129.05 1107.49 128.2 1107.99 127.3C1108.59 126.3 1109.19 125.4 1109.79 124.6C1110.09 124.2 1110.69 124 1111.59 124C1112.39 124 1113.19 124.25 1113.99 124.75C1114.89 125.15 1115.24 125.75 1115.04 126.55C1114.64 127.25 1113.89 128.8 1112.79 131.2C1111.79 133.5 1110.84 136.05 1109.94 138.85C1109.04 141.55 1108.59 143.95 1108.59 146.05C1108.59 148.65 1109.39 150.15 1110.99 150.55C1112.09 150.75 1113.24 150.35 1114.44 149.35C1115.74 148.35 1116.89 147.2 1117.89 145.9C1118.99 144.6 1119.79 143.65 1120.29 143.05C1122.39 140.25 1124.34 137.4 1126.14 134.5C1128.04 131.5 1129.94 128.7 1131.84 126.1C1132.44 125.3 1133.14 124.9 1133.94 124.9C1135.34 124.9 1136.04 125.65 1136.04 127.15C1136.04 127.65 1135.39 128.95 1134.09 131.05C1132.79 133.05 1131.19 135.35 1129.29 137.95C1127.49 140.55 1125.79 142.9 1124.19 145C1122.59 147.1 1120.79 149.15 1118.79 151.15C1116.79 153.15 1114.24 154.15 1111.14 154.15C1108.24 154.15 1106.24 153.5 1105.14 152.2C1104.14 150.9 1103.64 149.45 1103.64 147.85C1103.64 146.45 1103.79 145 1104.09 143.5C1104.39 141.9 1104.69 140.55 1104.99 139.45L1104.39 139C1103.49 140.1 1102.14 141.5 1100.34 143.2C1098.54 144.9 1096.54 146.65 1094.34 148.45C1092.14 150.15 1089.94 151.6 1087.74 152.8C1085.64 154 1083.74 154.6 1082.04 154.6ZM1148.74 156.1C1146.84 156.1 1145.19 155.5 1143.79 154.3C1142.49 153.1 1141.84 151.2 1141.84 148.6C1141.84 146.5 1142.24 144.35 1143.04 142.15C1143.84 139.85 1144.59 138.05 1145.29 136.75C1146.89 133.55 1148.59 130.6 1150.39 127.9C1152.19 125.1 1153.54 123.1 1154.44 121.9C1152.64 122 1150.49 121.55 1147.99 120.55C1145.59 119.55 1143.89 118.25 1142.89 116.65C1141.59 118.55 1139.74 121.65 1137.34 125.95C1134.94 130.15 1131.89 134.6 1128.19 139.3C1127.59 140.1 1126.89 140.5 1126.09 140.5C1124.59 140.5 1123.84 139.85 1123.84 138.55C1123.84 138.05 1123.99 137.6 1124.29 137.2C1125.79 135.1 1127.64 132.4 1129.84 129.1C1132.14 125.7 1134.34 122.2 1136.44 118.6C1138.64 114.9 1140.39 111.6 1141.69 108.7C1142.09 107.8 1142.49 106.85 1142.89 105.85C1143.39 104.85 1143.84 103.9 1144.24 103C1144.64 102.3 1145.19 101.7 1145.89 101.2C1146.59 100.6 1147.39 100.3 1148.29 100.3C1149.09 100.3 1149.89 100.65 1150.69 101.35C1151.49 101.95 1151.89 102.65 1151.89 103.45C1151.89 104.35 1151.54 105.5 1150.84 106.9C1150.24 108.2 1149.59 109.55 1148.89 110.95C1148.19 112.35 1147.84 113.6 1147.84 114.7C1147.84 115.6 1148.59 116.2 1150.09 116.5C1151.59 116.8 1152.69 116.95 1153.39 116.95C1156.09 116.95 1158.34 116.4 1160.14 115.3C1161.94 114.2 1163.19 113.65 1163.89 113.65C1164.49 113.65 1164.99 113.9 1165.39 114.4C1165.89 114.8 1166.14 115.25 1166.14 115.75C1166.14 116.45 1165.84 117.05 1165.24 117.55C1163.84 118.85 1162.19 120.7 1160.29 123.1C1158.39 125.5 1156.49 128.1 1154.59 130.9C1152.69 133.7 1151.04 136.45 1149.64 139.15C1149.24 140.15 1148.64 141.55 1147.84 143.35C1147.14 145.15 1146.79 146.85 1146.79 148.45C1146.79 151.15 1147.74 152.5 1149.64 152.5C1150.44 152.5 1151.34 152.2 1152.34 151.6C1153.44 151 1154.49 150.3 1155.49 149.5C1157.89 147.3 1159.99 145.15 1161.79 143.05C1163.69 140.85 1165.59 138.4 1167.49 135.7C1169.39 133 1171.59 129.75 1174.09 125.95C1174.49 125.25 1175.19 124.9 1176.19 124.9C1177.49 124.9 1178.14 125.5 1178.14 126.7C1178.14 127.3 1177.84 128.15 1177.24 129.25C1175.84 131.75 1173.99 134.5 1171.69 137.5C1169.49 140.5 1167.19 143.35 1164.79 146.05C1162.49 148.65 1160.44 150.65 1158.64 152.05C1155.44 154.75 1152.14 156.1 1148.74 156.1ZM1190.93 156.1C1189.03 156.1 1187.38 155.5 1185.98 154.3C1184.68 153.1 1184.03 151.2 1184.03 148.6C1184.03 146.5 1184.43 144.35 1185.23 142.15C1186.03 139.85 1186.78 138.05 1187.48 136.75C1189.08 133.55 1190.78 130.6 1192.58 127.9C1194.38 125.1 1195.73 123.1 1196.63 121.9C1194.83 122 1192.68 121.55 1190.17 120.55C1187.78 119.55 1186.08 118.25 1185.08 116.65C1183.78 118.55 1181.93 121.65 1179.53 125.95C1177.13 130.15 1174.08 134.6 1170.38 139.3C1169.78 140.1 1169.08 140.5 1168.28 140.5C1166.77 140.5 1166.02 139.85 1166.02 138.55C1166.02 138.05 1166.17 137.6 1166.47 137.2C1167.97 135.1 1169.83 132.4 1172.03 129.1C1174.33 125.7 1176.53 122.2 1178.63 118.6C1180.83 114.9 1182.58 111.6 1183.88 108.7C1184.28 107.8 1184.68 106.85 1185.08 105.85C1185.58 104.85 1186.03 103.9 1186.43 103C1186.83 102.3 1187.38 101.7 1188.08 101.2C1188.78 100.6 1189.58 100.3 1190.48 100.3C1191.28 100.3 1192.08 100.65 1192.88 101.35C1193.68 101.95 1194.08 102.65 1194.08 103.45C1194.08 104.35 1193.73 105.5 1193.03 106.9C1192.43 108.2 1191.78 109.55 1191.08 110.95C1190.38 112.35 1190.03 113.6 1190.03 114.7C1190.03 115.6 1190.78 116.2 1192.28 116.5C1193.78 116.8 1194.88 116.95 1195.58 116.95C1198.28 116.95 1200.53 116.4 1202.33 115.3C1204.13 114.2 1205.38 113.65 1206.08 113.65C1206.68 113.65 1207.18 113.9 1207.58 114.4C1208.08 114.8 1208.33 115.25 1208.33 115.75C1208.33 116.45 1208.03 117.05 1207.43 117.55C1206.03 118.85 1204.38 120.7 1202.48 123.1C1200.58 125.5 1198.68 128.1 1196.78 130.9C1194.88 133.7 1193.23 136.45 1191.83 139.15C1191.43 140.15 1190.83 141.55 1190.03 143.35C1189.33 145.15 1188.98 146.85 1188.98 148.45C1188.98 151.15 1189.93 152.5 1191.83 152.5C1192.63 152.5 1193.53 152.2 1194.53 151.6C1195.63 151 1196.68 150.3 1197.68 149.5C1200.08 147.3 1202.18 145.15 1203.98 143.05C1205.88 140.85 1207.78 138.4 1209.68 135.7C1211.58 133 1213.78 129.75 1216.28 125.95C1216.68 125.25 1217.38 124.9 1218.38 124.9C1219.68 124.9 1220.33 125.5 1220.33 126.7C1220.33 127.3 1220.03 128.15 1219.43 129.25C1218.03 131.75 1216.18 134.5 1213.88 137.5C1211.68 140.5 1209.38 143.35 1206.98 146.05C1204.68 148.65 1202.63 150.65 1200.83 152.05C1197.63 154.75 1194.33 156.1 1190.93 156.1ZM1218.71 154.6C1215.41 154.6 1213.11 153.75 1211.81 152.05C1210.61 150.25 1210.01 148.1 1210.01 145.6C1210.01 143.2 1210.41 140.7 1211.21 138.1C1212.01 135.5 1212.86 133.1 1213.76 130.9C1214.76 128.6 1215.56 126.9 1216.16 125.8C1217.96 122.7 1219.96 119.7 1222.16 116.8C1224.46 113.9 1226.91 111.35 1229.51 109.15C1232.11 106.85 1234.76 105.1 1237.46 103.9C1240.26 102.6 1243.06 101.95 1245.86 101.95C1250.66 101.95 1254.06 103.25 1256.06 105.85C1258.06 108.35 1259.06 111.05 1259.06 113.95C1259.06 114.95 1258.91 116 1258.61 117.1C1258.21 118.6 1257.71 119.9 1257.11 121C1256.61 122.1 1255.96 122.65 1255.16 122.65C1254.46 122.65 1253.81 122.3 1253.21 121.6C1252.61 120.9 1252.41 120.2 1252.61 119.5C1252.81 118.8 1253.06 118.1 1253.36 117.4C1253.76 116.7 1254.01 116 1254.11 115.3C1254.21 114.8 1254.26 114.35 1254.26 113.95C1254.36 113.55 1254.41 113.15 1254.41 112.75C1254.41 110.05 1253.51 108.2 1251.71 107.2C1250.01 106.1 1248.16 105.55 1246.16 105.55C1243.86 105.55 1241.46 106.2 1238.96 107.5C1236.56 108.8 1234.46 110.3 1232.66 112C1230.46 114.2 1228.26 116.75 1226.06 119.65C1223.86 122.55 1221.96 125.5 1220.36 128.5C1220.16 129 1219.61 130.2 1218.71 132.1C1217.91 134 1217.11 136.15 1216.31 138.55C1215.61 140.85 1215.26 143 1215.26 145C1215.26 146.4 1215.56 147.6 1216.16 148.6C1216.86 149.6 1218.01 150.1 1219.61 150.1C1221.31 150.1 1223.26 149.3 1225.46 147.7C1227.76 146.1 1230.06 144.15 1232.36 141.85C1234.76 139.45 1236.91 137.15 1238.81 134.95C1240.71 132.75 1242.11 131.05 1243.01 129.85C1243.61 129.05 1244.16 128.2 1244.66 127.3C1245.26 126.3 1245.86 125.4 1246.46 124.6C1246.76 124.2 1247.36 124 1248.26 124C1249.06 124 1249.86 124.25 1250.66 124.75C1251.56 125.15 1251.91 125.75 1251.71 126.55C1251.31 127.25 1250.56 128.8 1249.46 131.2C1248.46 133.5 1247.51 136.05 1246.61 138.85C1245.71 141.55 1245.26 143.95 1245.26 146.05C1245.26 148.65 1246.06 150.15 1247.66 150.55C1248.76 150.75 1249.91 150.35 1251.11 149.35C1252.41 148.35 1253.56 147.2 1254.56 145.9C1255.66 144.6 1256.46 143.65 1256.96 143.05C1259.06 140.25 1261.01 137.4 1262.81 134.5C1264.71 131.5 1266.61 128.7 1268.51 126.1C1269.11 125.3 1269.81 124.9 1270.61 124.9C1272.01 124.9 1272.71 125.65 1272.71 127.15C1272.71 127.65 1272.06 128.95 1270.76 131.05C1269.46 133.05 1267.86 135.35 1265.96 137.95C1264.16 140.55 1262.46 142.9 1260.86 145C1259.26 147.1 1257.46 149.15 1255.46 151.15C1253.46 153.15 1250.91 154.15 1247.81 154.15C1244.91 154.15 1242.91 153.5 1241.81 152.2C1240.81 150.9 1240.31 149.45 1240.31 147.85C1240.31 146.45 1240.46 145 1240.76 143.5C1241.06 141.9 1241.36 140.55 1241.66 139.45L1241.06 139C1240.16 140.1 1238.81 141.5 1237.01 143.2C1235.21 144.9 1233.21 146.65 1231.01 148.45C1228.81 150.15 1226.61 151.6 1224.41 152.8C1222.31 154 1220.41 154.6 1218.71 154.6ZM1324.23 169.45C1318.13 169.45 1313.13 168.2 1309.23 165.7C1305.43 163.2 1302.63 159.8 1300.83 155.5C1299.03 151.3 1298.13 146.6 1298.13 141.4C1298.13 133.4 1300.08 125.1 1303.98 116.5C1306.88 110.3 1310.73 104.6 1315.53 99.4C1320.33 94.1 1325.73 89.9 1331.73 86.8C1337.73 83.6 1344.03 82 1350.63 82C1355.73 82 1359.78 82.7 1362.78 84.1C1365.78 85.4 1367.93 87.15 1369.23 89.35C1370.63 91.45 1371.33 93.7 1371.33 96.1C1371.33 99.4 1370.33 102.5 1368.33 105.4C1366.33 108.3 1363.88 110.15 1360.98 110.95C1360.88 111.05 1360.73 111.1 1360.53 111.1C1360.43 111.2 1360.23 111.25 1359.93 111.25C1360.13 111.25 1360.33 111.2 1360.53 111.1C1360.63 111.1 1360.68 111.1 1360.68 111.1L1360.98 110.95C1362.38 110.35 1363.73 108.8 1365.03 106.3C1366.43 103.8 1367.13 101.1 1367.13 98.2C1367.13 95 1365.93 92.1 1363.53 89.5C1361.13 86.9 1356.68 85.6 1350.18 85.6C1344.38 85.6 1338.73 87.15 1333.23 90.25C1327.83 93.35 1322.93 97.45 1318.53 102.55C1314.23 107.65 1310.73 113.15 1308.03 119.05C1304.63 126.75 1302.93 134.25 1302.93 141.55C1302.93 148.15 1304.63 153.75 1308.03 158.35C1311.43 162.95 1316.83 165.25 1324.23 165.25C1328.53 165.25 1332.98 164.05 1337.58 161.65C1342.28 159.25 1346.98 156.15 1351.68 152.35C1356.48 148.45 1361.13 144.2 1365.63 139.6C1370.23 135 1374.53 130.55 1378.53 126.25C1374.73 126.65 1371.08 127.15 1367.58 127.75C1364.18 128.25 1360.88 128.9 1357.68 129.7H1357.08C1355.88 129.7 1355.28 129.1 1355.28 127.9C1355.28 127.4 1355.48 126.9 1355.88 126.4C1356.28 125.8 1356.83 125.45 1357.53 125.35C1364.83 124.15 1372.78 123.15 1381.38 122.35C1397.78 102.95 1410.88 87.75 1420.68 76.75C1430.48 65.75 1438.28 59 1444.08 56.5C1446.38 55.5 1448.58 55 1450.68 55C1452.88 55 1453.98 55.7 1453.98 57.1C1453.98 58.5 1452.63 60.55 1449.93 63.25C1446.33 66.95 1442.63 71.9 1438.83 78.1C1435.13 84.3 1431.63 91.1 1428.33 98.5C1425.13 105.8 1422.48 113.2 1420.38 120.7C1421.78 120.7 1422.93 120.7 1423.83 120.7C1424.73 120.6 1425.53 120.6 1426.23 120.7C1427.23 120.8 1427.98 121.1 1428.48 121.6C1428.98 122.1 1429.23 122.6 1429.23 123.1C1429.23 124.3 1428.48 124.9 1426.98 124.9C1425.98 124.9 1424.83 124.9 1423.53 124.9C1422.33 124.8 1421.03 124.75 1419.63 124.75C1417.93 131.55 1417.08 137.8 1417.08 143.5C1417.08 144.9 1417.13 146.25 1417.23 147.55C1417.33 148.85 1417.48 150.1 1417.68 151.3C1418.18 153.7 1418.78 155.8 1419.48 157.6C1420.28 159.4 1421.33 160.3 1422.63 160.3C1424.13 160.3 1426.03 158.85 1428.33 155.95C1429.13 155.05 1429.88 154.6 1430.58 154.6C1431.08 154.6 1431.48 154.8 1431.78 155.2C1432.08 155.7 1432.03 156.35 1431.63 157.15C1429.43 161.65 1426.48 163.9 1422.78 163.9C1420.78 163.9 1418.83 163 1416.93 161.2C1415.13 159.4 1413.83 156.5 1413.03 152.5C1412.43 149.6 1412.13 146.45 1412.13 143.05C1412.13 140.25 1412.28 137.35 1412.58 134.35C1412.98 131.25 1413.53 128.05 1414.23 124.75C1410.13 124.75 1405.48 124.8 1400.28 124.9C1395.18 124.9 1390.03 125.15 1384.83 125.65C1384.73 125.85 1384.53 126.1 1384.23 126.4C1383.93 126.6 1383.68 126.8 1383.48 127C1379.48 131.5 1375.03 136.25 1370.13 141.25C1365.23 146.15 1360.13 150.75 1354.83 155.05C1349.63 159.35 1344.38 162.8 1339.08 165.4C1333.88 168.1 1328.93 169.45 1324.23 169.45ZM1388.28 121.6C1393.18 121.3 1397.98 121.1 1402.68 121C1407.38 120.8 1411.58 120.65 1415.28 120.55C1417.08 113.25 1419.53 106.05 1422.63 98.95C1425.73 91.75 1429.08 85.1 1432.68 79C1436.28 72.9 1439.68 67.9 1442.88 64C1443.18 63.6 1443.63 63 1444.23 62.2C1444.83 61.3 1445.38 60.5 1445.88 59.8C1446.48 59 1446.68 58.65 1446.48 58.75C1441.08 61.05 1433.73 67.65 1424.43 78.55C1415.23 89.35 1403.18 103.7 1388.28 121.6ZM1467.57 157.3C1465.87 157.3 1464.32 156.8 1462.92 155.8C1461.52 154.8 1460.82 153.05 1460.82 150.55C1460.82 147.35 1461.62 143.95 1463.22 140.35C1464.92 136.75 1467.02 132.8 1469.52 128.5C1466.32 132.2 1462.72 136.2 1458.72 140.5C1454.82 144.8 1450.92 148.25 1447.02 150.85C1443.62 153.05 1440.82 154.15 1438.62 154.15C1436.82 154.15 1435.47 153.55 1434.57 152.35C1433.57 151.15 1433.07 149.6 1433.07 147.7C1433.07 145.5 1433.57 143.35 1434.57 141.25C1436.77 136.05 1439.27 130.4 1442.07 124.3C1444.87 118.1 1447.82 112.65 1450.92 107.95C1451.22 107.55 1451.52 107.25 1451.82 107.05C1452.22 106.75 1452.67 106.6 1453.17 106.6C1453.87 106.6 1454.47 106.8 1454.97 107.2C1455.57 107.6 1455.87 108.1 1455.87 108.7C1455.87 108.9 1455.77 109.2 1455.57 109.6C1454.97 111 1453.87 113.25 1452.27 116.35C1450.77 119.35 1449.02 122.8 1447.02 126.7C1445.02 130.6 1442.97 134.6 1440.87 138.7C1439.27 141.8 1438.47 144.5 1438.47 146.8C1438.47 148.6 1439.12 149.5 1440.42 149.5C1441.02 149.5 1441.67 149.3 1442.37 148.9C1445.37 147.2 1448.02 145.2 1450.32 142.9C1452.62 140.6 1454.87 138.25 1457.07 135.85C1458.47 134.35 1459.82 132.85 1461.12 131.35C1462.52 129.85 1463.87 128.3 1465.17 126.7C1465.67 126.2 1466.62 125 1468.02 123.1C1469.52 121.2 1471.17 119.1 1472.97 116.8C1474.77 114.4 1476.37 112.3 1477.77 110.5C1479.27 108.6 1480.17 107.45 1480.47 107.05C1481.27 106.25 1482.47 105.85 1484.07 105.85C1484.87 105.85 1485.57 106.05 1486.17 106.45C1486.87 106.75 1487.22 107.3 1487.22 108.1C1487.22 108.8 1486.72 110 1485.72 111.7C1484.82 113.3 1483.72 115.1 1482.42 117.1C1481.12 119 1479.87 120.75 1478.67 122.35C1477.47 123.95 1476.62 125.15 1476.12 125.95C1475.72 126.65 1474.97 128 1473.87 130C1472.77 131.9 1471.57 134.15 1470.27 136.75C1469.07 139.25 1468.02 141.7 1467.12 144.1C1466.22 146.5 1465.77 148.5 1465.77 150.1C1465.77 151.9 1466.52 152.8 1468.02 152.8C1469.62 152.8 1471.47 151.8 1473.57 149.8C1475.67 147.8 1477.87 145.35 1480.17 142.45C1482.47 139.45 1484.62 136.5 1486.62 133.6C1488.62 130.6 1490.32 128.1 1491.72 126.1C1492.12 125.6 1492.52 125.3 1492.92 125.2C1493.32 125.1 1493.62 125.05 1493.82 125.05C1494.82 125.05 1495.42 125.65 1495.62 126.85C1495.62 127.15 1495.27 128 1494.57 129.4C1493.87 130.8 1493.17 131.95 1492.47 132.85C1491.57 134.15 1490.17 136.15 1488.27 138.85C1486.47 141.45 1484.37 144.25 1481.97 147.25C1479.67 150.15 1477.12 152.75 1474.32 155.05C1472.52 156.55 1470.27 157.3 1467.57 157.3ZM1474.3 209.95C1471.4 209.95 1469 209.25 1467.1 207.85C1465.1 206.55 1463.85 204.5 1463.35 201.7C1462.95 198.8 1464.05 195.75 1466.65 192.55C1469.25 189.35 1472.5 186.2 1476.4 183.1C1479.5 180.6 1482.75 178.25 1486.15 176.05C1489.55 173.95 1492.7 172 1495.6 170.2C1498.6 168.5 1501 167.15 1502.8 166.15C1506.6 163.85 1510.5 161.45 1514.5 158.95C1518.5 156.55 1522.35 154.2 1526.05 151.9C1527.25 148.3 1528 144.7 1528.3 141.1C1528.7 137.4 1528.85 133.8 1528.75 130.3C1527.65 132 1526.05 134.25 1523.95 137.05C1521.95 139.85 1519.55 142.65 1516.75 145.45C1514.05 148.25 1511.1 150.65 1507.9 152.65C1504.7 154.55 1501.4 155.5 1498 155.5C1493.7 155.5 1490.75 154.25 1489.15 151.75C1487.55 149.25 1486.75 146.3 1486.75 142.9C1486.75 139.9 1487.15 136.85 1487.95 133.75C1488.85 130.65 1489.8 128.15 1490.8 126.25C1492.8 122.15 1495.3 118.15 1498.3 114.25C1501.4 110.35 1504.85 107.15 1508.65 104.65C1512.55 102.15 1516.5 100.9 1520.5 100.9C1523.4 100.9 1525.5 101.75 1526.8 103.45C1528.2 105.15 1528.9 107.1 1528.9 109.3C1528.9 110 1528.7 111.1 1528.3 112.6C1527.9 114.1 1527.35 115.65 1526.65 117.25C1526.05 118.85 1525.3 120.25 1524.4 121.45C1523.5 122.55 1522.5 123.1 1521.4 123.1C1520.7 123.1 1520.1 122.9 1519.6 122.5C1519.1 122 1518.85 121.5 1518.85 121C1518.85 120.7 1519.25 120 1520.05 118.9C1520.85 117.8 1521.65 116.45 1522.45 114.85C1523.25 113.25 1523.65 111.55 1523.65 109.75C1523.65 108.65 1523.35 107.65 1522.75 106.75C1522.25 105.85 1521.25 105.4 1519.75 105.4C1516.65 105.4 1513.55 106.5 1510.45 108.7C1507.45 110.9 1504.7 113.65 1502.2 116.95C1499.7 120.25 1497.6 123.65 1495.9 127.15C1495.2 128.65 1494.4 130.9 1493.5 133.9C1492.6 136.9 1492.15 139.8 1492.15 142.6C1492.15 145 1492.65 147.05 1493.65 148.75C1494.65 150.35 1496.4 151.15 1498.9 151.15C1501.1 151.15 1503.45 150.3 1505.95 148.6C1508.55 146.9 1511.15 144.75 1513.75 142.15C1516.35 139.45 1518.7 136.7 1520.8 133.9C1523 131 1524.75 128.4 1526.05 126.1C1527.45 123.8 1528.2 122.15 1528.3 121.15C1528.4 120.65 1528.7 120.1 1529.2 119.5C1529.7 118.9 1530.3 118.6 1531 118.6C1531.8 118.6 1532.35 118.85 1532.65 119.35C1532.95 119.85 1533.15 120.35 1533.25 120.85C1533.95 123.55 1534.3 126.7 1534.3 130.3C1534.3 133.2 1534.1 136.15 1533.7 139.15C1533.4 142.15 1533.05 144.85 1532.65 147.25C1536.05 144.45 1539.15 141.1 1541.95 137.2C1544.85 133.2 1547.45 129.45 1549.75 125.95C1550.25 125.15 1550.85 124.75 1551.55 124.75C1552.05 124.75 1552.5 124.95 1552.9 125.35C1553.4 125.75 1553.65 126.25 1553.65 126.85C1553.65 127.25 1553.5 127.75 1553.2 128.35C1550.1 133.35 1546.8 138.15 1543.3 142.75C1539.9 147.25 1535.55 151.25 1530.25 154.75C1527.45 162.75 1523.6 170.3 1518.7 177.4C1513.9 184.6 1508.55 190.8 1502.65 196C1496.85 201.3 1491 205.15 1485.1 207.55C1483.2 208.35 1481.35 208.95 1479.55 209.35C1477.65 209.75 1475.9 209.95 1474.3 209.95ZM1474.3 206.2C1475.5 206.2 1476.8 206 1478.2 205.6C1479.6 205.2 1481.05 204.7 1482.55 204.1C1488.55 201.4 1494 197.85 1498.9 193.45C1503.9 189.15 1508.25 184.35 1511.95 179.05C1515.75 173.75 1518.8 168.45 1521.1 163.15C1521.3 162.55 1521.55 161.95 1521.85 161.35C1522.15 160.75 1522.45 160.15 1522.75 159.55C1519.85 161.15 1517.05 162.85 1514.35 164.65C1511.65 166.55 1508.85 168.3 1505.95 169.9C1504.35 170.8 1502 172.15 1498.9 173.95C1495.8 175.75 1492.45 177.75 1488.85 179.95C1485.25 182.25 1481.9 184.65 1478.8 187.15C1475.8 189.45 1473.3 191.75 1471.3 194.05C1469.3 196.35 1468.3 198.5 1468.3 200.5C1468.3 202.5 1468.9 203.95 1470.1 204.85C1471.2 205.75 1472.6 206.2 1474.3 206.2ZM1575.96 157.3C1574.26 157.3 1572.71 156.8 1571.31 155.8C1569.91 154.8 1569.21 153.05 1569.21 150.55C1569.21 147.35 1570.01 143.95 1571.61 140.35C1573.31 136.75 1575.41 132.8 1577.91 128.5C1574.71 132.2 1571.11 136.2 1567.11 140.5C1563.21 144.8 1559.31 148.25 1555.41 150.85C1552.01 153.05 1549.21 154.15 1547.01 154.15C1545.21 154.15 1543.86 153.55 1542.96 152.35C1541.96 151.15 1541.46 149.6 1541.46 147.7C1541.46 145.5 1541.96 143.35 1542.96 141.25C1545.16 136.05 1547.66 130.4 1550.46 124.3C1553.26 118.1 1556.21 112.65 1559.31 107.95C1559.61 107.55 1559.91 107.25 1560.21 107.05C1560.61 106.75 1561.06 106.6 1561.56 106.6C1562.26 106.6 1562.86 106.8 1563.36 107.2C1563.96 107.6 1564.26 108.1 1564.26 108.7C1564.26 108.9 1564.16 109.2 1563.96 109.6C1563.36 111 1562.26 113.25 1560.66 116.35C1559.16 119.35 1557.41 122.8 1555.41 126.7C1553.41 130.6 1551.36 134.6 1549.26 138.7C1547.66 141.8 1546.86 144.5 1546.86 146.8C1546.86 148.6 1547.51 149.5 1548.81 149.5C1549.41 149.5 1550.06 149.3 1550.76 148.9C1553.76 147.2 1556.41 145.2 1558.71 142.9C1561.01 140.6 1563.26 138.25 1565.46 135.85C1566.86 134.35 1568.21 132.85 1569.51 131.35C1570.91 129.85 1572.26 128.3 1573.56 126.7C1574.06 126.2 1575.01 125 1576.41 123.1C1577.91 121.2 1579.56 119.1 1581.36 116.8C1583.16 114.4 1584.76 112.3 1586.16 110.5C1587.66 108.6 1588.56 107.45 1588.86 107.05C1589.66 106.25 1590.86 105.85 1592.46 105.85C1593.26 105.85 1593.96 106.05 1594.56 106.45C1595.26 106.75 1595.61 107.3 1595.61 108.1C1595.61 108.8 1595.11 110 1594.11 111.7C1593.21 113.3 1592.11 115.1 1590.81 117.1C1589.51 119 1588.26 120.75 1587.06 122.35C1585.86 123.95 1585.01 125.15 1584.51 125.95C1584.11 126.65 1583.36 128 1582.26 130C1581.16 131.9 1579.96 134.15 1578.66 136.75C1577.46 139.25 1576.41 141.7 1575.51 144.1C1574.61 146.5 1574.16 148.5 1574.16 150.1C1574.16 151.9 1574.91 152.8 1576.41 152.8C1578.01 152.8 1579.86 151.8 1581.96 149.8C1584.06 147.8 1586.26 145.35 1588.56 142.45C1590.86 139.45 1593.01 136.5 1595.01 133.6C1597.01 130.6 1598.71 128.1 1600.11 126.1C1600.51 125.6 1600.91 125.3 1601.31 125.2C1601.71 125.1 1602.01 125.05 1602.21 125.05C1603.21 125.05 1603.81 125.65 1604.01 126.85C1604.01 127.15 1603.66 128 1602.96 129.4C1602.26 130.8 1601.56 131.95 1600.86 132.85C1599.96 134.15 1598.56 136.15 1596.66 138.85C1594.86 141.45 1592.76 144.25 1590.36 147.25C1588.06 150.15 1585.51 152.75 1582.71 155.05C1580.91 156.55 1578.66 157.3 1575.96 157.3ZM1603.4 155.5C1598.5 155.5 1594.75 154.5 1592.15 152.5C1589.55 150.5 1588.25 148.4 1588.25 146.2C1588.25 144.6 1588.95 143.2 1590.35 142C1591.65 140.7 1593.9 140.05 1597.1 140.05C1599.1 140.05 1601.5 140.35 1604.3 140.95C1606.4 141.45 1608.6 142.1 1610.9 142.9C1613.3 143.7 1615.75 144.05 1618.25 143.95C1618.95 142.85 1619.35 141.95 1619.45 141.25C1619.55 140.55 1619.6 139.7 1619.6 138.7C1619.6 135.4 1619.05 132.65 1617.95 130.45C1616.95 128.25 1615.75 126.1 1614.35 124C1613.05 121.9 1611.95 119.35 1611.05 116.35C1609.75 118.55 1608.1 121.45 1606.1 125.05C1604.1 128.55 1600.8 133.35 1596.2 139.45C1595.9 139.95 1595.3 140.2 1594.4 140.2C1592.9 140.2 1592.15 139.55 1592.15 138.25C1592.15 137.95 1592.4 137.5 1592.9 136.9C1593.3 136.3 1594.3 134.75 1595.9 132.25C1597.7 129.35 1599.8 126.1 1602.2 122.5C1604.6 118.8 1606.9 114.75 1609.1 110.35C1609.2 108.65 1609.55 107 1610.15 105.4C1610.75 103.8 1611.45 102.35 1612.25 101.05C1613.35 99.25 1614.5 97.95 1615.7 97.15C1616.9 96.25 1618 95.8 1619 95.8C1620.9 95.8 1621.85 96.9 1621.85 99.1C1621.85 100.6 1621.25 102.55 1620.05 104.95C1619.35 106.45 1618.45 107.75 1617.35 108.85C1616.25 109.85 1615.3 110.75 1614.5 111.55C1614.7 114.05 1615.3 116.3 1616.3 118.3C1617.3 120.3 1618.4 122.25 1619.6 124.15C1620.9 126.05 1622 128.1 1622.9 130.3C1623.8 132.5 1624.25 135.15 1624.25 138.25C1624.25 140.25 1623.9 142.1 1623.2 143.8C1625.4 143.9 1627.65 143.1 1629.95 141.4C1632.35 139.6 1634.6 137.3 1636.7 134.5C1638.9 131.7 1640.85 128.85 1642.55 125.95C1643.05 125.25 1643.7 124.9 1644.5 124.9C1645 124.9 1645.5 125.05 1646 125.35C1646.5 125.65 1646.75 126.15 1646.75 126.85C1646.75 127.25 1646.6 127.75 1646.3 128.35C1643.4 133.55 1640.6 137.6 1637.9 140.5C1635.3 143.3 1632.65 145.25 1629.95 146.35C1627.25 147.45 1624.25 148.1 1620.95 148.3C1618.45 150.6 1615.75 152.4 1612.85 153.7C1610.05 154.9 1606.9 155.5 1603.4 155.5ZM1602.65 151.9C1604.95 151.9 1606.95 151.55 1608.65 150.85C1610.35 150.15 1612.2 149.15 1614.2 147.85C1612.1 147.55 1610.35 147.2 1608.95 146.8C1607.55 146.3 1605.75 145.8 1603.55 145.3C1600.75 144.7 1598.55 144.4 1596.95 144.4C1594.05 144.4 1592.6 145.1 1592.6 146.5C1592.6 147.6 1593.55 148.8 1595.45 150.1C1597.35 151.3 1599.75 151.9 1602.65 151.9ZM1647.53 159.4C1645.53 159.4 1644.03 158.75 1643.03 157.45C1642.03 156.25 1641.38 154.8 1641.08 153.1C1640.78 151.4 1640.63 149.9 1640.63 148.6C1640.63 144.5 1641.38 139.9 1642.88 134.8C1644.38 129.7 1646.13 124.6 1648.13 119.5C1650.23 114.4 1652.13 109.85 1653.83 105.85C1652.03 105.95 1650.03 106.25 1647.83 106.75C1645.73 107.25 1643.83 107.5 1642.13 107.5C1640.73 107.5 1640.03 106.9 1640.03 105.7C1640.03 104 1640.93 103 1642.73 102.7C1644.93 102.2 1647.18 101.8 1649.48 101.5C1651.78 101.2 1654.03 100.95 1656.23 100.75C1656.83 99.65 1657.68 97.95 1658.78 95.65C1659.88 93.35 1661.13 90.9 1662.53 88.3C1663.93 85.6 1665.28 83.2 1666.58 81.1C1667.98 78.9 1669.13 77.35 1670.03 76.45C1670.63 75.85 1671.28 75.55 1671.98 75.55C1672.68 75.55 1673.28 75.75 1673.78 76.15C1674.28 76.55 1674.53 77.05 1674.53 77.65C1674.53 77.95 1674.38 78.35 1674.08 78.85C1671.58 81.95 1669.48 85.35 1667.78 89.05C1666.08 92.75 1664.38 96.35 1662.68 99.85C1664.48 99.65 1666.38 99.45 1668.38 99.25C1670.38 99.05 1672.33 98.95 1674.23 98.95C1674.83 98.95 1675.38 99.05 1675.88 99.25C1676.48 99.45 1676.78 99.9 1676.78 100.6C1676.78 101.2 1676.48 101.7 1675.88 102.1C1675.38 102.5 1674.78 102.8 1674.08 103C1671.88 103.4 1669.58 103.75 1667.18 104.05C1664.88 104.25 1662.58 104.5 1660.28 104.8C1658.98 107.8 1657.48 111.15 1655.78 114.85C1654.08 118.55 1652.43 122.4 1650.83 126.4C1649.33 130.3 1648.08 134.1 1647.08 137.8C1646.08 141.5 1645.58 144.85 1645.58 147.85C1645.58 148.35 1645.58 149.2 1645.58 150.4C1645.68 151.5 1645.93 152.5 1646.33 153.4C1646.73 154.3 1647.33 154.75 1648.13 154.75C1649.83 154.75 1651.03 154.3 1651.73 153.4C1652.43 152.5 1653.23 152.05 1654.13 152.05C1654.83 152.05 1655.43 152.25 1655.93 152.65C1656.53 153.05 1656.83 153.55 1656.83 154.15C1656.83 155.05 1656.23 155.9 1655.03 156.7C1653.93 157.5 1652.63 158.15 1651.13 158.65C1649.63 159.15 1648.43 159.4 1647.53 159.4ZM1680.71 157.45C1678.01 157.45 1675.86 156.75 1674.26 155.35C1672.66 153.95 1671.46 152.25 1670.66 150.25C1669.96 148.15 1669.61 146.2 1669.61 144.4C1669.61 142 1670.06 139.35 1670.96 136.45C1671.86 133.45 1672.66 131.4 1673.36 130.3C1673.36 130 1673.31 129.7 1673.21 129.4C1673.21 129 1673.21 128.65 1673.21 128.35C1673.21 125.65 1673.61 122.85 1674.41 119.95C1675.31 116.55 1676.91 113.45 1679.21 110.65C1681.51 107.75 1684.36 105.4 1687.76 103.6C1691.26 101.8 1695.06 100.9 1699.16 100.9C1703.96 100.9 1707.66 102.2 1710.26 104.8C1712.86 107.3 1714.16 110.6 1714.16 114.7C1714.16 120.4 1713.11 125.3 1711.01 129.4C1709.01 133.5 1706.86 137.45 1704.56 141.25C1704.16 142.05 1703.81 142.7 1703.51 143.2C1703.21 143.7 1703.51 143.95 1704.41 143.95C1707.31 143.95 1710.16 142.75 1712.96 140.35C1715.76 137.95 1719.31 133.4 1723.61 126.7C1723.91 126.2 1724.21 125.8 1724.51 125.5C1724.81 125.2 1725.26 125.05 1725.86 125.05H1726.16C1727.26 125.05 1727.91 125.7 1728.11 127C1728.11 127.3 1728.01 127.65 1727.81 128.05C1725.31 132.45 1722.76 136.25 1720.16 139.45C1717.66 142.65 1714.66 145.1 1711.16 146.8C1707.66 148.4 1703.26 149.25 1697.96 149.35C1695.86 151.35 1693.26 153.2 1690.16 154.9C1687.16 156.6 1684.01 157.45 1680.71 157.45ZM1695.11 143.65H1696.61C1698.71 141.15 1700.71 138.3 1702.61 135.1C1704.61 131.9 1706.21 128.6 1707.41 125.2C1708.61 121.7 1709.21 118.4 1709.21 115.3C1709.21 112.4 1708.46 109.95 1706.96 107.95C1705.46 105.85 1702.86 104.8 1699.16 104.8C1696.66 104.8 1694.21 105.35 1691.81 106.45C1689.51 107.45 1687.51 108.7 1685.81 110.2L1686.26 110.8C1686.46 110.7 1686.76 110.65 1687.16 110.65C1687.76 110.65 1688.31 110.9 1688.81 111.4C1689.31 111.8 1689.56 112.25 1689.56 112.75C1689.56 113.05 1689.51 113.3 1689.41 113.5C1689.31 113.7 1689.16 113.9 1688.96 114.1C1687.26 116.6 1685.61 118.95 1684.01 121.15C1682.41 123.35 1680.91 125.85 1679.51 128.65C1679.21 129.35 1678.86 130.05 1678.46 130.75C1679.26 134.45 1681.11 137.55 1684.01 140.05C1687.01 142.45 1690.71 143.65 1695.11 143.65ZM1681.61 153.25C1683.61 153.25 1685.61 152.65 1687.61 151.45C1689.61 150.15 1691.31 148.95 1692.71 147.85C1685.11 147.05 1679.51 143.7 1675.91 137.8C1675.81 138.5 1675.61 139.55 1675.31 140.95C1675.01 142.35 1674.86 143.75 1674.86 145.15C1674.86 147.15 1675.31 149 1676.21 150.7C1677.11 152.4 1678.91 153.25 1681.61 153.25Z" fill="black"/>
</g>
<defs>
<clipPath id="clip0_0_1">
<rect width="1715" height="325" fill="white"/>
</clipPath>
</defs>
</svg>
